<?xml version="1.0" encoding="UTF-8" standalone="no"?>
<svg
   viewBox="0 0 16 16"
   version="1.1"
   id="svg2"
   sodipodi:docname="actions-newspaper.svg"
   inkscape:version="1.4 (e7c3feb100, 2024-10-09)"
   xmlns:inkscape="http://www.inkscape.org/namespaces/inkscape"
   xmlns:sodipodi="http://sodipodi.sourceforge.net/DTD/sodipodi-0.dtd"
   xmlns="http://www.w3.org/2000/svg"
   xmlns:svg="http://www.w3.org/2000/svg">
  <defs
     id="defs2" />
  <sodipodi:namedview
     id="namedview2"
     pagecolor="#ffffff"
     bordercolor="#000000"
     borderopacity="0.25"
     inkscape:showpageshadow="2"
     inkscape:pageopacity="0.0"
     inkscape:pagecheckerboard="0"
     inkscape:deskcolor="#d1d1d1"
     inkscape:zoom="48.1875"
     inkscape:cx="8.0103761"
     inkscape:cy="8"
     inkscape:window-width="1854"
     inkscape:window-height="1003"
     inkscape:window-x="66"
     inkscape:window-y="40"
     inkscape:window-maximized="1"
     inkscape:current-layer="svg2" />
  <g
     fill="currentColor"
     id="g2"
     style="fill:#cd4400;fill-opacity:1">
    <path
       d="M14.5 3h-11c-.3 0-.5.2-.5.5V5H1.5c-.3 0-.5.2-.5.5v7c0 .3.2.5.5.5h13c.3 0 .5-.2.5-.5v-9c0-.3-.2-.5-.5-.5zM3 12H2V6h1v6zm11 0H4V4h10v8z"
       id="path1"
       style="fill:#cd4400;fill-opacity:1" />
    <path
       d="M13 5H9v2h4zM13 8H9v1h4zM13 10H9v1h4zM5 5h3v6H5z"
       id="path2"
       style="fill:#cd4400;fill-opacity:1" />
  </g>
</svg>
